ffmpeg started on 2025-06-27 at 12:06:41
Report written to "D:\Convert\FFMetrics\reports\ssim_report-6.txt"
Log level: 32
Command line:
ffmpeg -hide_banner -nostdin -i "G:\\\xc0\xed\xe8\xec\xe5\\[\xd2\xee\xef]\\\xcf\xee\xe2\xe5\xeb\xe8\xf2\xe5\xeb\xfc\\\xd2\xc2-3\\Special\\[Ohys-Raws] Overlord III - Sp.01 (BDRip-720p)_HEVC.mkv" -i "G:\\\xc0\xed\xe8\xec\xe5\\[\xd2\xee\xef]\\\xcf\xee\xe2\xe5\xeb\xe8\xf2\xe5\xeb\xfc\\\xd2\xc2-3\\Special\\[Ohys-Raws] Overlord III - Sp.01 (BDRip-720p).mkv" -lavfi "[0:v]settb=AVTB,setpts=PTS-STARTPTS,format=pix_fmts=yuv420p10,fps=24000/1001,scale=1280:720:flags=bicubic[main];[1:v]settb=AVTB,setpts=PTS-STARTPTS,format=pix_fmts=yuv420p,fps=24000/1001,scale=1280:720:flags=bicubic[ref];[main][ref]ssim=eof_action=endall:stats_file='D\\:/Convert/FFMetrics/logs/ssim_logfile-6.txt'" -f null -
Input #0, matroska,webm, from 'G:\Аниме\[Топ]\Повелитель\ТВ-3\Special\[Ohys-Raws] Overlord III - Sp.01 (BDRip-720p)_HEVC.mkv':
  Metadata:
    ENCODER         : Lavf61.7.100
  Duration: 00:01:33.12, start: -0.021000, bitrate: 640 kb/s
  Stream #0:0(jpn): Video: hevc (Main 10), yuv420p10le(tv, bt709, progressive), 1280x720 [SAR 1:1 DAR 16:9], 23.98 fps, 23.98 tbr, 1k tbn (default)
      Metadata:
        ENCODER         : Lavc61.19.100 libx265
        BPS             : 442157
        DURATION        : 00:01:33.092708333
        NUMBER_OF_FRAMES: 2232
        NUMBER_OF_BYTES : 5145167
        _STATISTICS_WRITING_APP: mkvpropedit v66.0.0 ('Josie') 64-bit
        _STATISTICS_WRITING_DATE_UTC: 2025-06-27 08:28:57
        _STATISTICS_TAGS: BPS DURATION NUMBER_OF_FRAMES NUMBER_OF_BYTES
  Stream #0:1(jpn): Audio: aac (LC), 48000 Hz, stereo, fltp (default)
      Metadata:
        ENCODER         : Lavc61.19.100 aac
        BPS             : 194116
        DURATION        : 00:01:33.098000000
        NUMBER_OF_FRAMES: 4365
        NUMBER_OF_BYTES : 2258979
        _STATISTICS_WRITING_APP: mkvpropedit v66.0.0 ('Josie') 64-bit
        _STATISTICS_WRITING_DATE_UTC: 2025-06-27 08:28:57
        _STATISTICS_TAGS: BPS DURATION NUMBER_OF_FRAMES NUMBER_OF_BYTES
Input #1, matroska,webm, from 'G:\Аниме\[Топ]\Повелитель\ТВ-3\Special\[Ohys-Raws] Overlord III - Sp.01 (BDRip-720p).mkv':
  Metadata:
    encoder         : libebml v1.2.3 + libmatroska v1.3.0
    creation_time   : 2019-10-11T20:49:31.000000Z
  Duration: 00:01:33.10, start: 0.000000, bitrate: 1363 kb/s
  Stream #1:0(jpn): Video: h264 (Main), yuv420p(progressive), 1280x720 [SAR 1:1 DAR 16:9], 23.98 fps, 23.98 tbr, 1k tbn (default)
  Stream #1:1(jpn): Audio: aac (LC), 48000 Hz, stereo, fltp (default)
Stream mapping:
  Stream #0:0 (hevc) -> settb:default
  Stream #1:0 (h264) -> settb:default
  ssim:default -> Stream #0:0 (wrapped_avframe)
  Stream #0:1 -> #0:1 (aac (native) -> pcm_s16le (native))
[swscaler @ 000002b2931a4000] No accelerated colorspace conversion found from yuv420p to bgr48le.
[swscaler @ 000002b29320c8c0] No accelerated colorspace conversion found from yuv420p to bgr48le.
[swscaler @ 000002b29325e2c0] No accelerated colorspace conversion found from yuv420p to bgr48le.
[swscaler @ 000002b2932df400] No accelerated colorspace conversion found from yuv420p to bgr48le.
[swscaler @ 000002b293381ec0] No accelerated colorspace conversion found from yuv420p to bgr48le.
[swscaler @ 000002b2907c26c0] No accelerated colorspace conversion found from yuv420p to bgr48le.
[swscaler @ 000002b29358fe00] No accelerated colorspace conversion found from yuv420p to bgr48le.
[swscaler @ 000002b2936a4e00] No accelerated colorspace conversion found from yuv420p to bgr48le.
[swscaler @ 000002b2937f6040] No accelerated colorspace conversion found from yuv420p to bgr48le.
[swscaler @ 000002b29399c7c0] No accelerated colorspace conversion found from yuv420p to bgr48le.
[swscaler @ 000002b293afd040] No accelerated colorspace conversion found from yuv420p to bgr48le.
[swscaler @ 000002b293c47f00] No accelerated colorspace conversion found from yuv420p to bgr48le.
[swscaler @ 000002b293ca6040] No accelerated colorspace conversion found from yuv420p to bgr48le.
[swscaler @ 000002b293d24040] No accelerated colorspace conversion found from yuv420p to bgr48le.
[swscaler @ 000002b293d7f040] No accelerated colorspace conversion found from yuv420p to bgr48le.
[swscaler @ 000002b293dfe040] No accelerated colorspace conversion found from yuv420p to bgr48le.
Output #0, null, to 'pipe:':
  Metadata:
    encoder         : Lavf61.7.100
  Stream #0:0: Video: wrapped_avframe, yuv420p10le(tv, bt709, progressive), 1280x720 [SAR 1:1 DAR 16:9], q=2-31, 200 kb/s, 23.98 fps, 23.98 tbn
      Metadata:
        encoder         : Lavc61.19.100 wrapped_avframe
  Stream #0:1(jpn): Audio: pcm_s16le, 48000 Hz, stereo, s16, 1536 kb/s (default)
      Metadata:
        _STATISTICS_TAGS: BPS DURATION NUMBER_OF_FRAMES NUMBER_OF_BYTES
        BPS             : 194116
        DURATION        : 00:01:33.098000000
        NUMBER_OF_FRAMES: 4365
        NUMBER_OF_BYTES : 2258979
        _STATISTICS_WRITING_APP: mkvpropedit v66.0.0 ('Josie') 64-bit
        _STATISTICS_WRITING_DATE_UTC: 2025-06-27 08:28:57
        encoder         : Lavc61.19.100 pcm_s16le
frame=   75 fps=0.0 q=-0.0 size=N/A time=00:00:03.12 bitrate=N/A speed=6.18x    frame=  159 fps=154 q=-0.0 size=N/A time=00:00:06.63 bitrate=N/A speed=6.43x    frame=  239 fps=154 q=-0.0 size=N/A time=00:00:09.96 bitrate=N/A speed=6.44x    frame=  327 fps=159 q=-0.0 size=N/A time=00:00:13.63 bitrate=N/A speed=6.64x    frame=  415 fps=161 q=-0.0 size=N/A time=00:00:17.30 bitrate=N/A speed=6.71x    frame=  496 fps=160 q=-0.0 size=N/A time=00:00:20.68 bitrate=N/A speed=6.69x    frame=  579 fps=161 q=-0.0 size=N/A time=00:00:24.14 bitrate=N/A speed=6.71x    frame=  674 fps=163 q=-0.0 size=N/A time=00:00:28.11 bitrate=N/A speed=6.82x    frame=  762 fps=165 q=-0.0 size=N/A time=00:00:31.78 bitrate=N/A speed=6.86x    frame=  854 fps=166 q=-0.0 size=N/A time=00:00:35.61 bitrate=N/A speed=6.91x    frame=  941 fps=166 q=-0.0 size=N/A time=00:00:39.24 bitrate=N/A speed=6.93x    frame= 1029 fps=167 q=-0.0 size=N/A time=00:00:42.91 bitrate=N/A speed=6.95x    frame= 1118 fps=167 q=-0.0 size=N/A time=00:00:46.62 bitrate=N/A speed=6.96x    frame= 1207 fps=167 q=-0.0 size=N/A time=00:00:50.34 bitrate=N/A speed=6.97x    frame= 1297 fps=168 q=-0.0 size=N/A time=00:00:54.09 bitrate=N/A speed=   7x    frame= 1381 fps=168 q=-0.0 size=N/A time=00:00:57.59 bitrate=N/A speed=6.99x    frame= 1477 fps=169 q=-0.0 size=N/A time=00:01:01.60 bitrate=N/A speed=7.03x    frame= 1560 fps=168 q=-0.0 size=N/A time=00:01:05.06 bitrate=N/A speed=7.01x    frame= 1654 fps=169 q=-0.0 size=N/A time=00:01:08.98 bitrate=N/A speed=7.05x    frame= 1740 fps=169 q=-0.0 size=N/A time=00:01:12.57 bitrate=N/A speed=7.04x    frame= 1828 fps=169 q=-0.0 size=N/A time=00:01:16.24 bitrate=N/A speed=7.05x    frame= 1921 fps=169 q=-0.0 size=N/A time=00:01:20.12 bitrate=N/A speed=7.06x    frame= 2009 fps=169 q=-0.0 size=N/A time=00:01:23.79 bitrate=N/A speed=7.07x    frame= 2099 fps=170 q=-0.0 size=N/A time=00:01:27.54 bitrate=N/A speed=7.08x    frame= 2192 fps=170 q=-0.0 size=N/A time=00:01:31.42 bitrate=N/A speed=7.09x    [Parsed_ssim_10 @ 000002b2929b4f00] SSIM Y:0.992043 (20.992341) U:0.990283 (20.124769) V:0.990202 (20.088831) All:0.991443 (20.676654)
[out#0/null @ 000002b286d7eec0] video:959KiB audio:17460KiB subtitle:0KiB other streams:0KiB global headers:0KiB muxing overhead: unknown
frame= 2232 fps=170 q=-0.0 Lsize=N/A time=00:01:33.09 bitrate=N/A speed= 7.1x    
